<?xml version="1.0" encoding="utf-8" standalone="no"?>
<!DOCTYPE svg PUBLIC "-//W3C//DTD SVG 1.1//EN"
  "http://www.w3.org/Graphics/SVG/1.1/DTD/svg11.dtd">
<svg xmlns:xlink="http://www.w3.org/1999/xlink" width="460.8pt" height="345.6pt" viewBox="0 0 460.8 345.6" xmlns="http://www.w3.org/2000/svg" version="1.1">
 <metadata>
  <rdf:RDF xmlns:dc="http://purl.org/dc/elements/1.1/" xmlns:cc="http://creativecommons.org/ns#" xmlns:rdf="http://www.w3.org/1999/02/22-rdf-syntax-ns#">
   <cc:Work>
    <dc:type rdf:resource="http://purl.org/dc/dcmitype/StillImage"/>
    <dc:date>2024-11-11T10:02:52.646844</dc:date>
    <dc:format>image/svg+xml</dc:format>
    <dc:creator>
     <cc:Agent>
      <dc:title>Matplotlib v3.8.0, https://matplotlib.org/</dc:title>
     </cc:Agent>
    </dc:creator>
   </cc:Work>
  </rdf:RDF>
 </metadata>
 <defs>
  <style type="text/css">*{stroke-linejoin: round; stroke-linecap: butt}</style>
 </defs>
 <g id="figure_1">
  <g id="patch_1">
   <path d="M 0 345.6 
L 460.8 345.6 
L 460.8 0 
L 0 0 
z
" style="fill: #ffffff"/>
  </g>
  <g id="axes_1">
   <g id="patch_2">
    <path d="M 57.6 307.584 
L 414.72 307.584 
L 414.72 41.472 
L 57.6 41.472 
z
" style="fill: #ffffff"/>
   </g>
   <g id="matplotlib.axis_1">
    <g id="xtick_1">
     <g id="line2d_1">
      <defs>
       <path id="mfb35fdd83f" d="M 0 0 
L 0 3.5 
" style="stroke: #000000; stroke-width: 0.8"/>
      </defs>
      <g>
       <use xlink:href="#mfb35fdd83f" x="73.832727" y="307.584" style="stroke: #000000; stroke-width: 0.8"/>
      </g>
     </g>
     <g id="text_1">
      <text style="font: 10px 'Source Sans Pro'; text-anchor: middle" x="73.832727" y="321.704312" transform="rotate(-0 73.832727 321.704312)">1900</text>
     </g>
    </g>
    <g id="xtick_2">
     <g id="line2d_2">
      <g>
       <use xlink:href="#mfb35fdd83f" x="126.196364" y="307.584" style="stroke: #000000; stroke-width: 0.8"/>
      </g>
     </g>
     <g id="text_2">
      <text style="font: 10px 'Source Sans Pro'; text-anchor: middle" x="126.196364" y="321.704312" transform="rotate(-0 126.196364 321.704312)">1920</text>
     </g>
    </g>
    <g id="xtick_3">
     <g id="line2d_3">
      <g>
       <use xlink:href="#mfb35fdd83f" x="178.56" y="307.584" style="stroke: #000000; stroke-width: 0.8"/>
      </g>
     </g>
     <g id="text_3">
      <text style="font: 10px 'Source Sans Pro'; text-anchor: middle" x="178.56" y="321.704312" transform="rotate(-0 178.56 321.704312)">1940</text>
     </g>
    </g>
    <g id="xtick_4">
     <g id="line2d_4">
      <g>
       <use xlink:href="#mfb35fdd83f" x="230.923636" y="307.584" style="stroke: #000000; stroke-width: 0.8"/>
      </g>
     </g>
     <g id="text_4">
      <text style="font: 10px 'Source Sans Pro'; text-anchor: middle" x="230.923636" y="321.704312" transform="rotate(-0 230.923636 321.704312)">1960</text>
     </g>
    </g>
    <g id="xtick_5">
     <g id="line2d_5">
      <g>
       <use xlink:href="#mfb35fdd83f" x="283.287273" y="307.584" style="stroke: #000000; stroke-width: 0.8"/>
      </g>
     </g>
     <g id="text_5">
      <text style="font: 10px 'Source Sans Pro'; text-anchor: middle" x="283.287273" y="321.704312" transform="rotate(-0 283.287273 321.704312)">1980</text>
     </g>
    </g>
    <g id="xtick_6">
     <g id="line2d_6">
      <g>
       <use xlink:href="#mfb35fdd83f" x="335.650909" y="307.584" style="stroke: #000000; stroke-width: 0.8"/>
      </g>
     </g>
     <g id="text_6">
      <text style="font: 10px 'Source Sans Pro'; text-anchor: middle" x="335.650909" y="321.704312" transform="rotate(-0 335.650909 321.704312)">2000</text>
     </g>
    </g>
    <g id="xtick_7">
     <g id="line2d_7">
      <g>
       <use xlink:href="#mfb35fdd83f" x="388.014545" y="307.584" style="stroke: #000000; stroke-width: 0.8"/>
      </g>
     </g>
     <g id="text_7">
      <text style="font: 10px 'Source Sans Pro'; text-anchor: middle" x="388.014545" y="321.704312" transform="rotate(-0 388.014545 321.704312)">2020</text>
     </g>
    </g>
    <g id="text_8">
     <text style="font: 10px 'Source Sans Pro'; text-anchor: middle" x="236.16" y="334.874625" transform="rotate(-0 236.16 334.874625)">YEAR</text>
    </g>
   </g>
   <g id="matplotlib.axis_2">
    <g id="ytick_1">
     <g id="line2d_8">
      <defs>
       <path id="mc199343683" d="M 0 0 
L -3.5 0 
" style="stroke: #000000; stroke-width: 0.8"/>
      </defs>
      <g>
       <use xlink:href="#mc199343683" x="57.6" y="284.757677" style="stroke: #000000; stroke-width: 0.8"/>
      </g>
     </g>
     <g id="text_9">
      <text style="font: 10px 'Source Sans Pro'; text-anchor: end" x="50.6" y="288.317834" transform="rotate(-0 50.6 288.317834)">0.50</text>
     </g>
    </g>
    <g id="ytick_2">
     <g id="line2d_9">
      <g>
       <use xlink:href="#mc199343683" x="57.6" y="235.983484" style="stroke: #000000; stroke-width: 0.8"/>
      </g>
     </g>
     <g id="text_10">
      <text style="font: 10px 'Source Sans Pro'; text-anchor: end" x="50.6" y="239.54364" transform="rotate(-0 50.6 239.54364)">0.55</text>
     </g>
    </g>
    <g id="ytick_3">
     <g id="line2d_10">
      <g>
       <use xlink:href="#mc199343683" x="57.6" y="187.20929" style="stroke: #000000; stroke-width: 0.8"/>
      </g>
     </g>
     <g id="text_11">
      <text style="font: 10px 'Source Sans Pro'; text-anchor: end" x="50.6" y="190.769447" transform="rotate(-0 50.6 190.769447)">0.60</text>
     </g>
    </g>
    <g id="ytick_4">
     <g id="line2d_11">
      <g>
       <use xlink:href="#mc199343683" x="57.6" y="138.435097" style="stroke: #000000; stroke-width: 0.8"/>
      </g>
     </g>
     <g id="text_12">
      <text style="font: 10px 'Source Sans Pro'; text-anchor: end" x="50.6" y="141.995253" transform="rotate(-0 50.6 141.995253)">0.65</text>
     </g>
    </g>
    <g id="ytick_5">
     <g id="line2d_12">
      <g>
       <use xlink:href="#mc199343683" x="57.6" y="89.660903" style="stroke: #000000; stroke-width: 0.8"/>
      </g>
     </g>
     <g id="text_13">
      <text style="font: 10px 'Source Sans Pro'; text-anchor: end" x="50.6" y="93.221059" transform="rotate(-0 50.6 93.221059)">0.70</text>
     </g>
    </g>
   </g>
   <g id="line2d_13">
    <path d="M 73.832727 53.568 
L 84.305455 133.557677 
L 94.778182 131.60671 
L 105.250909 196.964129 
L 115.723636 169.650581 
L 126.196364 292.561548 
L 136.669091 295.488 
L 147.141818 217.44929 
L 157.614545 217.44929 
L 168.087273 177.454452 
L 178.56 163.797677 
L 189.032727 227.204129 
L 199.505455 263.297032 
L 209.978182 164.773161 
L 220.450909 185.258323 
L 230.923636 150.140903 
L 241.396364 159.895742 
L 251.869091 162.822194 
L 262.341818 224.277677 
L 272.814545 237.934452 
L 283.287273 243.787355 
L 293.76 234.032516 
L 304.232727 257.444129 
L 314.705455 205.743484 
L 325.178182 268.174452 
L 335.650909 243.787355 
L 346.123636 186.233806 
L 356.596364 171.601548 
L 367.069091 200.866065 
L 377.541818 186.233806 
L 388.014545 128.680258 
L 398.487273 138.435097 
" clip-path="url(#p6961280eba)" style="fill: none; stroke: #1f77b4; stroke-width: 1.5; stroke-linecap: square"/>
   </g>
   <g id="patch_3">
    <path d="M 57.6 307.584 
L 57.6 41.472 
" style="fill: none; stroke: #000000; stroke-width: 0.8; stroke-linejoin: miter; stroke-linecap: square"/>
   </g>
   <g id="patch_4">
    <path d="M 414.72 307.584 
L 414.72 41.472 
" style="fill: none; stroke: #000000; stroke-width: 0.8; stroke-linejoin: miter; stroke-linecap: square"/>
   </g>
   <g id="patch_5">
    <path d="M 57.6 307.584 
L 414.72 307.584 
" style="fill: none; stroke: #000000; stroke-width: 0.8; stroke-linejoin: miter; stroke-linecap: square"/>
   </g>
   <g id="patch_6">
    <path d="M 57.6 41.472 
L 414.72 41.472 
" style="fill: none; stroke: #000000; stroke-width: 0.8; stroke-linejoin: miter; stroke-linecap: square"/>
   </g>
   <g id="legend_1">
    <g id="patch_7">
     <path d="M 279.8825 63.642313 
L 407.72 63.642313 
Q 409.72 63.642313 409.72 61.642313 
L 409.72 48.472 
Q 409.72 46.472 407.72 46.472 
L 279.8825 46.472 
Q 277.8825 46.472 277.8825 48.472 
L 277.8825 61.642313 
Q 277.8825 63.642313 279.8825 63.642313 
z
" style="fill: #ffffff; opacity: 0.8; stroke: #cccccc; stroke-linejoin: miter"/>
    </g>
    <g id="line2d_14">
     <path d="M 281.8825 54.092312 
L 291.8825 54.092312 
L 301.8825 54.092312 
" style="fill: none; stroke: #1f77b4; stroke-width: 1.5; stroke-linecap: square"/>
    </g>
    <g id="text_14">
     <text style="font: 10px 'Source Sans Pro'; text-anchor: start" x="309.8825" y="57.592312" transform="rotate(-0 309.8825 57.592312)">TURNOUT_RATE_PRES</text>
    </g>
   </g>
  </g>
 </g>
 <defs>
  <clipPath id="p6961280eba">
   <rect x="57.6" y="41.472" width="357.12" height="266.112"/>
  </clipPath>
 </defs>
</svg>
